<svg xmlns="http://www.w3.org/2000/svg" viewBox="0 0 19.5 21.75" class="precipitation__icon--rDD-"><path d="M9.75 12.25a.75.75 0 01.743.648l.007.1v6a2.75 2.75 0 01-5.5 0 .75.75 0 011.493-.1l.007.1a1.25 1.25 0 002.494.128L9 19v-6a.75.75 0 01.75-.75zM10 0a.75.75 0 01.75.75v.55a10.06 10.06 0 018.746 9.911v.275a.75.75 0 01-.75.76h-.13a.75.75 0 01-.719-.537 2.4 2.4 0 00-4.529-.207.75.75 0 01-1.394 0 2.395 2.395 0 00-4.456 0 .75.75 0 01-1.394 0 2.4 2.4 0 00-4.528.208.75.75 0 01-.719.537H.75a.75.75 0 01-.75-.75A10.041 10.041 0 019.25 1.263V.75A.75.75 0 0110 0z" fill="#6c757d" fill-rule="evenodd"></path></svg>